<?xml version="1.0" encoding="UTF-8"?>
<svg width="24px" height="24px" viewBox="0 0 24 24" version="1.1" xmlns="http://www.w3.org/2000/svg" xmlns:xlink="http://www.w3.org/1999/xlink">
    <title>Iconly/Curved/Filter</title>
    <g id="Raw-File" stroke="none" stroke-width="1" fill="none" fill-rule="evenodd">
        <g id="Private" transform="translate(-314, -137)">
            <g id="Group-44" transform="translate(24, 124)">
                <g id="Iconly/Curved/Filter" transform="translate(290, 13)">
                    <path d="M0,0 L24,0 L24,24 L0,24 Z" id="Iconly/Curved/Filter-(Background)"></path>
                    <g id="Filter" transform="translate(4.6709, 4.6719)" stroke="#BEC4D0" stroke-dasharray="0,0" stroke-linecap="round" stroke-linejoin="round" stroke-width="1.5">
                        <line x1="6.47301483" y1="13.2110403" x2="0.00048828125" y2="13.2110403" id="Stroke-1"></line>
                        <path d="M13.255969,15.9338131 C15.2968638,15.9338131 15.9777584,15.2538133 15.9777584,13.2120237 C15.9777584,11.1702342 15.2968638,10.4902344 13.255969,10.4902344 C11.2150743,10.4902344 10.5341797,11.1702342 10.5341797,13.2120237 C10.5341797,15.2538133 11.2150743,15.9338131 13.255969,15.9338131 Z" id="Stroke-3"></path>
                        <line x1="9.50585938" y1="2.72275904" x2="15.9774909" y2="2.72275904" id="Stroke-5"></line>
                        <path d="M2.72268414,0 C0.680894613,0 0,0.680894613 0,2.72178936 C0,4.76357889 0.680894613,5.44357872 2.72268414,5.44357872 C4.76357889,5.44357872 5.44447374,4.76357889 5.44447374,2.72178936 C5.44447374,0.680894613 4.76357889,0 2.72268414,0 Z" id="Stroke-7"></path>
                    </g>
                </g>
            </g>
        </g>
    </g>
</svg>