<?xml version="1.0" encoding="UTF-8"?>
<svg width="18px" height="20px" viewBox="0 0 18 20" version="1.1" xmlns="http://www.w3.org/2000/svg" xmlns:xlink="http://www.w3.org/1999/xlink">
    <title>Calendar</title>
    <g id="Raw-File" stroke="none" stroke-width="1" fill="none" fill-rule="evenodd" stroke-dasharray="0,0" stroke-linecap="round" stroke-linejoin="round">
        <g id="Add-task" transform="translate(-326, -243)" stroke="#A8AEDF" stroke-width="1.5">
            <g id="Iconly/Light/Calendar" transform="translate(325, 243)">
                <g id="Calendar" transform="translate(2.5, 1.666)">
                    <line x1="0.0771484375" y1="6.16940165" x2="14.930439" y2="6.16940165" id="Line_200"></line>
                    <line x1="11.2019639" y1="9.42526102" x2="11.2096839" y2="9.42526102" id="Line_201"></line>
                    <line x1="7.50372266" y1="9.42526102" x2="7.51144266" y2="9.42526102" id="Line_202"></line>
                    <line x1="3.79815555" y1="9.42526102" x2="3.80587554" y2="9.42526102" id="Line_203"></line>
                    <line x1="11.2019639" y1="12.6635423" x2="11.2096839" y2="12.6635423" id="Line_204"></line>
                    <line x1="7.50372266" y1="12.6635423" x2="7.51144266" y2="12.6635423" id="Line_205"></line>
                    <line x1="3.79815555" y1="12.6635423" x2="3.80587554" y2="12.6635423" id="Line_206"></line>
                    <line x1="10.8698883" y1="0" x2="10.8698883" y2="2.74231648" id="Line_207"></line>
                    <line x1="4.13795304" y1="0" x2="4.13795304" y2="2.74231648" id="Line_208"></line>
                    <path d="M3.97580266,1.31640625 C1.52856092,1.31640625 0,2.67968425 0,5.1855944 L0,12.7269658 C0,15.272277 1.52856092,16.6670752 3.97580266,16.6670752 L11.0241675,16.6670752 C13.4791293,16.6670752 15,15.295917 15,12.7900069 L15,5.1855944 C15.0076914,2.67968425 13.4868493,1.31640625 11.0318875,1.31640625 L3.97580266,1.31640625 Z" id="Path"></path>
                </g>
            </g>
        </g>
    </g>
</svg>