<?xml version="1.0" encoding="UTF-8"?>
<svg width="74px" height="74px" viewBox="0 0 74 74" version="1.1" xmlns="http://www.w3.org/2000/svg" xmlns:xlink="http://www.w3.org/1999/xlink">
    <title>Group 677</title>
    <defs>
        <rect id="path-1" x="0" y="0" width="48" height="48"></rect>
        <filter x="-54.2%" y="-33.3%" width="195.8%" height="195.8%" filterUnits="objectBoundingBox" id="filter-2">
            <feOffset dx="-3" dy="7" in="SourceAlpha" result="shadowOffsetOuter1"></feOffset>
            <feGaussianBlur stdDeviation="6.5" in="shadowOffsetOuter1" result="shadowBlurOuter1"></feGaussianBlur>
            <feColorMatrix values="0 0 0 0 0.945833325   0 0 0 0 0.967499971   0 0 0 0 1  0 0 0 1 0" type="matrix" in="shadowBlurOuter1"></feColorMatrix>
        </filter>
    </defs>
    <g id="Raw-File" stroke="none" stroke-width="1" fill="none" fill-rule="evenodd">
        <g id="Profile-(pop-up)" transform="translate(-286, -46)">
            <g id="Group-677" transform="translate(302, 52)">
                <g id="Rectangle-35">
                    <use fill="black" fill-opacity="1" filter="url(#filter-2)" xlink:href="#path-1"></use>
                    <use fill="#FFFFFF" fill-rule="evenodd" xlink:href="#path-1"></use>
                </g>
                <g id="Iconly/Curved/More-Square" transform="translate(12, 13)">
                    <path d="M0,0 L24,0 L24,24 L0,24 Z" id="Iconly/Curved/More-Square-(Background)"></path>
                    <g id="More-Square" transform="translate(2.75, 2.75)" stroke="#10275A" stroke-dasharray="0,0" stroke-linecap="round" stroke-linejoin="round">
                        <path d="M9.25,0 C16.1869998,0 18.5,2.3130002 18.5,9.25 C18.5,16.1869998 16.1869998,18.5 9.25,18.5 C2.3130002,18.5 0,16.1869998 0,9.25 C0,2.3130002 2.3130002,0 9.25,0 Z" id="Stroke-4" stroke-width="1.5"></path>
                        <line x1="13.2435469" y1="9.25" x2="13.2525468" y2="9.25" id="Stroke-11" stroke-width="2"></line>
                        <line x1="9.24452344" y1="9.25" x2="9.25352341" y2="9.25" id="Stroke-13" stroke-width="2"></line>
                        <line x1="5.2455" y1="9.25" x2="5.25449997" y2="9.25" id="Stroke-15" stroke-width="2"></line>
                    </g>
                </g>
            </g>
        </g>
    </g>
</svg>